<?xml version="1.0"?>
<svg version="1.1" xmlns="http://www.w3.org/2000/svg" width="300" height="36" style=""><path fill="#1c89d6" d="M15.833984375,27.638671875q0-2.966796875,0.2666015625-5.9404296875t1.1142578125-5.8583984375q0.24609375-0.861328125,0.642578125-1.7021484375t0.970703125-1.4970703125t1.3671875-1.06640625t1.88671875-0.41015625l0.287109375,0.02734375q1.17578125,0.1640625,1.736328125,0.9501953125t0.560546875,1.9619140625q0,0.314453125-0.0751953125,0.7861328125t-0.2392578125,0.9091796875t-0.4443359375,0.7451171875t-0.7041015625,0.3076171875q-0.19140625-0.02734375-0.3486328125-0.068359375t-0.2939453125-0.177734375q0.21875-0.478515625,0.3896484375-0.998046875t0.1708984375-1.189453125q0-0.24609375-0.041015625-0.62890625t-0.1572265625-0.7587890625t-0.3076171875-0.65625t-0.533203125-0.2802734375q-0.861328125,0-1.44921875,0.9638671875t-0.984375,2.4609375t-0.587890625,3.30859375t-0.2939453125,3.5t-0.1162109375,3.048828125t-0.013671875,1.9208984375q0,0.65625-0.013671875,1.44921875l0,0.177734375q0.013671875,0.697265625,0.095703125,1.326171875q0.109375,0.7109375,0.423828125,1.23046875t0.984375,0.6015625q0.205078125,0.02734375,0.396484375,0.02734375q0.79296875,0,1.435546875-0.451171875q0.79296875-0.560546875,1.408203125-1.4560546875t1.09375-1.96875t0.8818359375-2.0302734375t0.7861328125-1.5859375t0.79296875-0.62890625q0.13671875,0,0.41015625,0.0546875t0.2734375,0.259765625q0,0.0546875-0.02734375,0.150390625t-0.068359375,0.150390625q-0.369140625,1.44921875-0.9365234375,3.0078125t-1.44921875,2.8369140625t-2.16015625,2.0849609375t-3.0693359375,0.806640625q-1.28515625,0-2.0849609375-0.4853515625t-1.23046875-1.298828125t-0.587890625-1.8388671875t-0.1572265625-2.078125z M30.13025390625,27.16015625q0-0.779296875,0.1982421875-1.6064453125t0.62890625-1.490234375t1.0869140625-1.080078125t1.5859375-0.4169921875q0.697265625,0,1.4697265625,0.2392578125t1.4150390625,0.68359375t1.0458984375,1.0869140625t0.4033203125,1.435546875q0,0.95703125-0.3486328125,1.818359375t-0.9775390625,1.5380859375t-1.4697265625,1.06640625t-1.8251953125,0.3896484375q-0.806640625,0-1.408203125-0.2939453125t-1.0048828125-0.7861328125t-0.6015625-1.162109375t-0.1982421875-1.421875z M32.14001953125,27.1328125q0,0.24609375,0.0751953125,0.724609375t0.2255859375,0.9365234375t0.3896484375,0.79296875t0.5810546875,0.3076171875q0.724609375-0.08203125,1.1962890625-0.4716796875t0.765625-0.9501953125t0.41015625-1.216796875t0.1162109375-1.244140625q0-0.751953125-0.2939453125-1.2578125t-0.9638671875-0.8203125q0,0.02734375,0.02734375,0.02734375t0.02734375-0.02734375l-0.341796875-0.08203125q-0.13671875-0.0546875-0.3349609375-0.123046875t-0.3896484375-0.30078125q-0.533203125,0.19140625-0.8271484375,0.4921875t-0.4443359375,0.7314453125t-0.1845703125,1.0322265625t-0.0341796875,1.44921875z M40.4890234375,23.072265625q0-0.560546875,0.1982421875-0.943359375t0.8408203125-0.3828125q0.24609375,0,0.615234375,0.0751953125t0.423828125,0.3759765625q0.13671875,0.806640625,0.150390625,1.75t0.095703125,1.77734375q0.314453125-0.615234375,0.806640625-1.326171875t1.12109375-1.3125t1.3671875-0.998046875t1.50390625-0.396484375q0.0546875,0,0.205078125,0.041015625t0.2802734375,0.1162109375t0.1572265625,0.1708984375t-0.150390625,0.177734375q-0.0546875,0.1640625-0.232421875,0.1982421875t-0.314453125,0.0341796875q-0.08203125,0-0.259765625-0.068359375q-1.01171875,0.533203125-1.72265625,1.44921875t-1.162109375,2.0302734375t-0.65625,2.3515625t-0.205078125,2.4130859375q0,0.587890625-0.2666015625,0.7109375t-0.8544921875,0.123046875q-0.314453125,0-0.6630859375-0.068359375t-0.4853515625-0.4375q-0.24609375-0.779296875-0.4033203125-1.791015625t-0.2392578125-2.0849609375t-0.1162109375-2.1123046875t-0.0341796875-1.873046875z M50.20521484375,26.900390625q0-0.9296875,0.2529296875-1.791015625t0.7587890625-1.5380859375t1.2646484375-1.080078125t1.7568359375-0.4033203125q0.615234375,0,1.3603515625,0.1845703125t1.4013671875,0.546875t1.09375,0.9228515625t0.4375,1.28515625q0,0.341796875-0.1162109375,0.51953125t-0.4716796875,0.177734375l-0.150390625-0.02734375q0.396484375,1.06640625,0.68359375,2.1875t0.560546875,2.2421875q0.109375,0.21875,0.1640625,0.3896484375t0.0546875,0.3349609375q0,0.21875-0.123046875,0.3623046875t-0.3212890625,0.2119140625t-0.41015625,0.095703125t-0.3759765625,0.02734375q-0.587890625,0-0.8818359375-0.205078125t-0.423828125-0.560546875t-0.1572265625-0.7998046875t-0.109375-0.8955078125q-0.1640625,0.533203125-0.4306640625,1.0390625t-0.62890625,0.9091796875t-0.8544921875,0.642578125t-1.107421875,0.2392578125q-0.90234375,0-1.517578125-0.51953125t-0.9912109375-1.2783203125t-0.546875-1.6201171875t-0.1708984375-1.599609375z M52.14662109375,26.708984375q0,0.505859375,0.068359375,1.06640625t0.2255859375,1.107421875t0.4033203125,1.0322265625t0.615234375,0.8544921875q0.669921875-0.724609375,0.9912109375-1.763671875t0.57421875-2.0029296875t0.57421875-1.654296875t0.9912109375-0.6904296875q0.423828125,0,0.7109375,0.150390625q-0.13671875-0.341796875-0.451171875-0.6630859375t-0.7041015625-0.587890625t-0.806640625-0.4375t-0.7861328125-0.1708984375q-0.109375,0-0.2529296875,0.0341796875t-0.2255859375,0.0068359375q-0.560546875,0.1640625-0.9228515625,0.5673828125t-0.587890625,0.9501953125t-0.3212890625,1.12109375t-0.095703125,1.080078125z M62.05421875,31.75390625q0-0.396484375,0.0341796875-0.833984375t0.0615234375-0.8203125l0.08203125-2.05078125q0.13671875-2.4609375,0.3349609375-4.83984375t0.3349609375-4.8125q0.08203125-1.33984375,0.123046875-2.6318359375t0.123046875-2.6318359375q-0.0546875-0.109375-0.0546875-0.150390625q0-0.19140625,0.1435546875-0.30078125t0.3349609375-0.1845703125t0.4033203125-0.1025390625t0.3212890625-0.02734375l0.314453125,0q0.423828125,0.0546875,0.615234375,0.2666015625t0.24609375,0.505859375t0.02734375,0.62890625t-0.02734375,0.6220703125q0,1.982421875-0.095703125,4.0400390625t-0.21875,4.12890625t-0.2255859375,4.142578125t-0.1025390625,4.0947265625l0,0.95703125q0,0.642578125-0.3623046875,0.84765625t-1.0048828125,0.205078125q-0.560546875,0-0.984375-0.24609375t-0.423828125-0.806640625z"/><path fill="#d413ca" d="M72.49111328125,14.103515625q0-0.13671875,0.1904296875-0.2099609375t0.2490234375-0.0732421875l0.361328125-0.05859375q0.361328125-0.05859375,0.732421875-0.1025390625t0.72265625-0.0830078125q1.240234375-0.15625,2.48046875-0.3076171875t2.5-0.1513671875q0.09765625,0,0.2685546875,0.009765625t0.341796875,0.0537109375t0.29296875,0.1220703125t0.1220703125,0.21484375q0,0.09765625-0.0927734375,0.1708984375t-0.2197265625,0.1123046875t-0.2587890625,0.048828125t-0.2099609375,0.009765625l-0.1708984375,0t-0.1708984375-0.0390625q-0.517578125,0-1.0205078125,0.048828125t-1.0205078125,0.087890625q0.13671875,0.15625,0.146484375,0.439453125t0.01953125,0.48828125q0,3.45703125,0.048828125,6.875t0.087890625,6.904296875l0,0.01953125q-0.322265625,0.283203125-0.5517578125,0.361328125t-0.4638671875,0.078125q-0.224609375,0-0.4541015625-0.0830078125t-0.5517578125-0.3564453125l0-0.01953125l0.078125-7.666015625q0-0.76171875-0.01953125-1.6796875t-0.01953125-1.8603515625t0.029296875-1.8212890625t0.15625-1.533203125q-0.576171875,0.05859375-1.220703125,0.17578125q-0.556640625,0.09765625-1.064453125,0.09765625l-0.17578125,0q-0.0390625,0-0.2294921875,0.009765625t-0.390625-0.009765625t-0.361328125-0.078125t-0.1611328125-0.1953125z M82.14609375,25.421875l0-0.91796875q0-0.498046875,0.0244140625-1.4111328125t0.0634765625-2.001953125t0.107421875-2.2705078125t0.15625-2.2314453125t0.2099609375-1.8798828125t0.2783203125-1.23046875q0.09765625-0.224609375,0.322265625-0.283203125t0.439453125-0.05859375q0.341796875,0,0.6005859375,0.1513671875t0.2587890625,0.5517578125l-0.17578125,0.1953125q-0.341796875,2.255859375-0.439453125,4.53125t-0.13671875,4.55078125q0.244140625-0.380859375,0.5517578125-0.7470703125t0.68359375-0.6494140625t0.810546875-0.4541015625t0.9521484375-0.1708984375q0.6640625,0,1.0986328125,0.400390625t0.7177734375,1.0400390625t0.419921875,1.4306640625t0.2099609375,1.58203125t0.1025390625,1.4990234375t0.087890625,1.1767578125q-0.185546875,0.25390625-0.546875,0.25390625l-0.029296875,0q-0.15625,0-0.341796875-0.0390625t-0.244140625-0.1953125l0.01953125,0.01953125q-0.13671875-0.302734375-0.185546875-0.8740234375t-0.078125-1.259765625t-0.1025390625-1.4111328125t-0.2197265625-1.30859375t-0.4296875-0.966796875t-0.76171875-0.400390625l-0.05859375,0q-0.576171875,0-0.966796875,0.3515625q-0.41015625,0.37109375-0.6640625,0.9765625t-0.390625,1.34765625t-0.2099609375,1.4306640625t-0.1123046875,1.25t-0.09765625,0.8251953125q-0.05859375,0.224609375-0.3466796875,0.2978515625t-0.4931640625,0.0732421875q-0.478515625,0-0.78125-0.2734375q-0.224609375-0.537109375-0.263671875-1.337890625t-0.0390625-1.5625z M91.48857421875,24.7578125q0-0.68359375,0.1513671875-1.611328125t0.5126953125-1.7578125t0.9521484375-1.4111328125t1.4892578125-0.5810546875q0.83984375,0,1.259765625,0.4833984375t0.419921875,1.3037109375q0,0.537109375-0.2001953125,1.1767578125t-0.5712890625,1.2109375t-0.87890625,0.9521484375t-1.1328125,0.380859375l-0.25390625-0.01953125q0,0.263671875,0.078125,0.7080078125t0.2294921875,0.8837890625t0.390625,0.771484375t0.5810546875,0.33203125q0.498046875,0,0.95703125-0.400390625t0.869140625-0.888671875t0.76171875-0.888671875t0.64453125-0.400390625q0.15625,0,0.322265625,0.048828125t0.185546875,0.2734375q0,0.13671875-0.0732421875,0.224609375t-0.1318359375,0.1953125q-0.302734375,0.517578125-0.6591796875,0.986328125t-0.8056640625,0.849609375t-0.9814453125,0.6005859375t-1.1767578125,0.2197265625q-0.83984375,0-1.396484375-0.2978515625t-0.8984375-0.80078125t-0.4931640625-1.162109375t-0.1513671875-1.3818359375z M93.23662109375,24.015625l0.2734375,0.244140625q0.1953125,0.17578125,0.390625,0.078125t0.3515625-0.3564453125t0.2880859375-0.6396484375t0.234375-0.78125t0.1513671875-0.78125t0.048828125-0.634765625l0-0.33203125t-0.029296875-0.3515625t-0.1025390625-0.2783203125t-0.2294921875-0.1416015625q-0.048828125-0.009765625-0.087890625-0.009765625q-0.33203125,0-0.56640625,0.419921875q-0.25390625,0.46875-0.41015625,1.1376953125t-0.224609375,1.3720703125t-0.087890625,1.0546875z M103.47919921875,14.2158203125q-0.0244140625-0.2978515625,0.0390625-0.517578125t0.25390625-0.361328125t0.6103515625-0.1416015625l1.572265625,0q0.322265625,0,0.8447265625,0.0341796875t1.123046875,0.1025390625t1.1962890625,0.2099609375t1.0888671875,0.3515625t0.80078125,0.517578125t0.3076171875,0.7275390625q0,0.595703125-0.3466796875,1.1181640625t-0.869140625,0.9423828125t-1.103515625,0.7470703125t-1.0400390625,0.5908203125q1.81640625,0.400390625,2.841796875,1.66015625t1.025390625,3.14453125q0,0.99609375-0.380859375,1.9677734375t-1.0400390625,1.7529296875t-1.5625,1.259765625t-1.9384765625,0.478515625q-0.13671875,0-0.3076171875-0.029296875t-0.3125-0.0927734375t-0.244140625-0.1806640625t-0.1025390625-0.302734375q0-0.859375,0.927734375-0.859375q0.15625,0,0.3662109375,0.0439453125t0.3271484375,0.1806640625q0.537109375-0.224609375,0.9814453125-0.712890625t0.751953125-1.0888671875t0.478515625-1.259765625t0.1708984375-1.1962890625q0-0.64453125-0.1904296875-1.3134765625t-0.5517578125-1.240234375t-0.888671875-0.9619140625t-1.2109375-0.48828125q-0.17578125-0.01953125-0.3857421875-0.029296875l-0.419921875-0.01953125t-0.41015625-0.05859375t-0.3466796875-0.15625q0.078125,1.62109375,0.2001953125,3.232421875t0.3271484375,3.232421875q0.078125,0.078125,0.107421875,0.2294921875t0.048828125,0.322265625t0.01953125,0.3271484375l0,0.263671875q0,0.17578125-0.1171875,0.2880859375t-0.2783203125,0.1806640625t-0.341796875,0.087890625t-0.3173828125,0.01953125q-0.439453125,0-0.673828125-0.1171875t-0.33203125-0.341796875t-0.126953125-0.5126953125t-0.048828125-0.6298828125q-0.263671875-2.724609375-0.380859375-5.390625t-0.1171875-5.390625q0-0.322265625-0.0244140625-0.6201171875z M105.28095703125,13.80078125q0,1.201171875,0.078125,2.4072265625t0.13671875,2.4072265625q0.439453125-0.263671875,1.15234375-0.6201171875t1.3818359375-0.7861328125t1.1474609375-0.947265625t0.478515625-1.123046875q0-0.478515625-0.56640625-0.7275390625t-1.318359375-0.37109375t-1.4697265625-0.1513671875t-1.0205078125-0.087890625z M113.812890625,24.7578125q0-0.68359375,0.1513671875-1.611328125t0.5126953125-1.7578125t0.9521484375-1.4111328125t1.4892578125-0.5810546875q0.83984375,0,1.259765625,0.4833984375t0.419921875,1.3037109375q0,0.537109375-0.2001953125,1.1767578125t-0.5712890625,1.2109375t-0.87890625,0.9521484375t-1.1328125,0.380859375l-0.25390625-0.01953125q0,0.263671875,0.078125,0.7080078125t0.2294921875,0.8837890625t0.390625,0.771484375t0.5810546875,0.33203125q0.498046875,0,0.95703125-0.400390625t0.869140625-0.888671875t0.76171875-0.888671875t0.64453125-0.400390625q0.15625,0,0.322265625,0.048828125t0.185546875,0.2734375q0,0.13671875-0.0732421875,0.224609375t-0.1318359375,0.1953125q-0.302734375,0.517578125-0.6591796875,0.986328125t-0.8056640625,0.849609375t-0.9814453125,0.6005859375t-1.1767578125,0.2197265625q-0.83984375,0-1.396484375-0.2978515625t-0.8984375-0.80078125t-0.4931640625-1.162109375t-0.1513671875-1.3818359375z M115.5609375,24.015625l0.2734375,0.244140625q0.1953125,0.17578125,0.390625,0.078125t0.3515625-0.3564453125t0.2880859375-0.6396484375t0.234375-0.78125t0.1513671875-0.78125t0.048828125-0.634765625l0-0.33203125t-0.029296875-0.3515625t-0.1025390625-0.2783203125t-0.2294921875-0.1416015625q-0.048828125-0.009765625-0.087890625-0.009765625q-0.33203125,0-0.56640625,0.419921875q-0.25390625,0.46875-0.41015625,1.1376953125t-0.224609375,1.3720703125t-0.087890625,1.0546875z M121.97373046875,24.357421875q0-0.6640625,0.1806640625-1.279296875t0.5419921875-1.0986328125t0.9033203125-0.771484375t1.2548828125-0.2880859375q0.439453125,0,0.9716796875,0.1318359375t1.0009765625,0.390625t0.78125,0.6591796875t0.3125,0.91796875q0,0.244140625-0.0830078125,0.37109375t-0.3369140625,0.126953125l-0.107421875-0.01953125q0.283203125,0.76171875,0.48828125,1.5625t0.400390625,1.6015625q0.078125,0.15625,0.1171875,0.2783203125t0.0390625,0.2392578125q0,0.15625-0.087890625,0.2587890625t-0.2294921875,0.1513671875t-0.29296875,0.068359375t-0.2685546875,0.01953125q-0.419921875,0-0.6298828125-0.146484375t-0.302734375-0.400390625t-0.1123046875-0.5712890625t-0.078125-0.6396484375q-0.1171875,0.380859375-0.3076171875,0.7421875t-0.44921875,0.6494140625t-0.6103515625,0.458984375t-0.791015625,0.1708984375q-0.64453125,0-1.083984375-0.37109375t-0.7080078125-0.9130859375t-0.390625-1.1572265625t-0.1220703125-1.142578125z M123.36044921875,24.220703125q0,0.361328125,0.048828125,0.76171875t0.1611328125,0.791015625t0.2880859375,0.7373046875t0.439453125,0.6103515625q0.478515625-0.517578125,0.7080078125-1.259765625t0.41015625-1.4306640625t0.41015625-1.181640625t0.7080078125-0.4931640625q0.302734375,0,0.5078125,0.107421875q-0.09765625-0.244140625-0.322265625-0.4736328125t-0.5029296875-0.419921875t-0.576171875-0.3125t-0.5615234375-0.1220703125q-0.078125,0-0.1806640625,0.0244140625t-0.1611328125,0.0048828125q-0.400390625,0.1171875-0.6591796875,0.4052734375t-0.419921875,0.6787109375t-0.2294921875,0.80078125t-0.068359375,0.771484375z M130.0369140625,23.498046875q0-0.1953125,0.0439453125-0.517578125t0.1025390625-0.6396484375t0.13671875-0.5908203125t0.185546875-0.3515625q0.078125-0.078125,0.2685546875-0.15625t0.400390625-0.1123046875t0.390625,0.029296875t0.2197265625,0.2587890625q-0.13671875,0.17578125-0.2490234375,0.6005859375t-0.1708984375,0.9423828125q-0.048828125,0.439453125-0.048828125,0.908203125l0,0.166015625q0.009765625,0.546875,0.09765625,1.005859375t0.2685546875,0.7568359375t0.5029296875,0.2978515625q0.68359375,0,1.25-0.6298828125t1.005859375-1.5380859375t0.771484375-1.9287109375t0.56640625-1.7822265625q0.05859375-0.224609375,0.2783203125-0.302734375t0.4736328125-0.0537109375t0.4541015625,0.1220703125t0.2392578125,0.234375q-0.1953125,1.640625-0.3076171875,3.28125t-0.1123046875,3.30078125q0,0.322265625,0.029296875,0.5908203125t-0.029296875,0.458984375t-0.2587890625,0.302734375t-0.6396484375,0.1123046875q-0.09765625,0-0.2490234375-0.01953125t-0.3125-0.0634765625t-0.2734375-0.1318359375t-0.1123046875-0.205078125q0-0.72265625,0.0537109375-1.484375t0.1513671875-1.474609375q-0.263671875,0.380859375-0.5810546875,0.7568359375t-0.6982421875,0.6787109375t-0.8203125,0.4833984375t-0.947265625,0.1806640625q-0.72265625,0-1.1376953125-0.341796875t-0.625-0.8544921875t-0.263671875-1.1181640625t-0.0537109375-1.171875z M138.82275390625,18.15625q0-0.13671875,0.29296875-0.234375t0.6640625-0.1611328125t0.7177734375-0.0927734375t0.4736328125-0.048828125q0-0.263671875,0.01953125-0.5322265625t0.107421875-0.478515625t0.2783203125-0.3369140625t0.5322265625-0.126953125q0.283203125,0,0.4296875,0.068359375t0.3125,0.283203125q0.0390625,0.1171875,0.0390625,0.224609375l0,0.3271484375t-0.01953125,0.3369140625q0.361328125-0.0390625,0.7177734375-0.0927734375t0.7177734375-0.0537109375q0.263671875,0,0.361328125,0.009765625t0.1953125,0.234375q0.078125,0.224609375-0.1904296875,0.341796875t-0.64453125,0.17578125t-0.7470703125,0.087890625t-0.44921875,0.029296875q-0.1171875,1.6796875-0.2392578125,3.330078125t-0.1220703125,3.349609375q0,0.76171875,0.048828125,1.572265625t0.2734375,1.533203125q0.05859375,0.224609375,0.1953125,0.419921875t0.13671875,0.419921875q0,0.13671875-0.107421875,0.21484375t-0.2587890625,0.1318359375t-0.302734375,0.0634765625t-0.2490234375,0.009765625q-0.615234375,0-0.9375-0.458984375t-0.4638671875-1.0986328125t-0.1513671875-1.3134765625t-0.009765625-1.09375q0-0.859375,0.0341796875-1.7578125t0.0830078125-1.77734375t0.13671875-1.71875t0.205078125-1.5625q-0.341796875,0.0390625-0.6689453125,0.087890625t-0.6689453125,0.048828125q-0.078125,0-0.2099609375-0.009765625t-0.2490234375-0.048828125t-0.2001953125-0.107421875t-0.0830078125-0.1953125z M146.290234375,22.1796875q0-0.283203125,0.1611328125-0.37109375t0.4052734375-0.087890625q0.400390625,0,0.6103515625,0.1513671875t0.2099609375,0.5322265625q0,0.458984375,0.068359375,1.1474609375t0.2001953125,1.337890625t0.3125,1.1181640625t0.3759765625,0.46875q0.361328125,0,0.6396484375-0.556640625t0.48828125-1.3671875t0.361328125-1.7431640625t0.2099609375-1.6650390625q0.0390625-0.400390625,0.1904296875-0.5810546875t0.5517578125-0.1806640625q0.458984375,0,0.6689453125,0.380859375t0.2685546875,0.9375q0.048828125,0.478515625,0.048828125,0.99609375l0,0.166015625l0,0.390625q0,0.37109375,0.009765625,0.6640625l0.283203125,5.986328125l0.0390625,0.99609375q0.01953125,0.13671875,0.029296875,0.2587890625t0.009765625,0.2587890625q0,0.556640625-0.2392578125,0.7177734375t-0.7763671875,0.1611328125q-0.1171875,0-0.2978515625-0.01953125t-0.3515625-0.078125t-0.29296875-0.1611328125t-0.1220703125-0.2587890625l0.0390625-0.09765625q0.048828125-0.5859375,0.048828125-1.23046875l0-0.205078125q-0.009765625-0.76171875-0.048828125-1.54296875t-0.087890625-1.5625t-0.048828125-1.50390625q-0.13671875,0.302734375-0.3173828125,0.625t-0.419921875,0.5810546875t-0.5419921875,0.4296875t-0.68359375,0.1708984375q-0.556640625,0-0.91796875-0.29296875t-0.5615234375-0.76171875t-0.2880859375-1.0498046875t-0.1171875-1.162109375t-0.0390625-1.1083984375t-0.078125-0.888671875z M158.2369140625,26.14453125q0-0.341796875,0.234375-0.4345703125t0.5078125-0.0927734375q0.478515625,0,0.810546875,0.4296875t0.6298828125,0.9423828125t0.5908203125,0.9423828125t0.693359375,0.4296875q0.302734375,0,0.5517578125-0.1513671875t0.4296875-0.380859375t0.2783203125-0.517578125t0.09765625-0.5712890625q0-0.7421875-0.2978515625-1.533203125t-0.76171875-1.630859375t-0.9814453125-1.71875t-0.9765625-1.787109375t-0.76171875-1.8505859375t-0.302734375-1.8994140625q0-1.435546875,0.859375-2.2265625t2.265625-0.791015625q0.478515625,0,0.966796875,0.13671875t0.8984375,0.41015625t0.6689453125,0.673828125t0.2587890625,0.9375q0,0.17578125-0.2587890625,0.2294921875t-0.3759765625,0.0537109375q-0.17578125,0-0.380859375-0.0439453125t-0.263671875-0.2392578125t-0.166015625-0.44921875t-0.2685546875-0.4736328125t-0.380859375-0.380859375t-0.4833984375-0.1611328125q-0.439453125,0-0.7470703125,0.1806640625t-0.498046875,0.4833984375t-0.283203125,0.6787109375t-0.0927734375,0.7763671875q0,0.9375,0.322265625,1.8896484375t0.80078125,1.89453125t1.0400390625,1.8603515625t1.0400390625,1.787109375t0.80078125,1.69921875t0.322265625,1.572265625q0,0.6640625-0.3125,1.123046875t-0.791015625,0.7470703125t-1.0595703125,0.419921875t-1.1376953125,0.1318359375q-0.595703125,0-1.220703125-0.2392578125t-1.123046875-0.6591796875t-0.8203125-0.9814453125t-0.322265625-1.2158203125z M166.62236328125,18.15625q0-0.13671875,0.29296875-0.234375t0.6640625-0.1611328125t0.7177734375-0.0927734375t0.4736328125-0.048828125q0-0.263671875,0.01953125-0.5322265625t0.107421875-0.478515625t0.2783203125-0.3369140625t0.5322265625-0.126953125q0.283203125,0,0.4296875,0.068359375t0.3125,0.283203125q0.0390625,0.1171875,0.0390625,0.224609375l0,0.3271484375t-0.01953125,0.3369140625q0.361328125-0.0390625,0.7177734375-0.0927734375t0.7177734375-0.0537109375q0.263671875,0,0.361328125,0.009765625t0.1953125,0.234375q0.078125,0.224609375-0.1904296875,0.341796875t-0.64453125,0.17578125t-0.7470703125,0.087890625t-0.44921875,0.029296875q-0.1171875,1.6796875-0.2392578125,3.330078125t-0.1220703125,3.349609375q0,0.76171875,0.048828125,1.572265625t0.2734375,1.533203125q0.05859375,0.224609375,0.1953125,0.419921875t0.13671875,0.419921875q0,0.13671875-0.107421875,0.21484375t-0.2587890625,0.1318359375t-0.302734375,0.0634765625t-0.2490234375,0.009765625q-0.615234375,0-0.9375-0.458984375t-0.4638671875-1.0986328125t-0.1513671875-1.3134765625t-0.009765625-1.09375q0-0.859375,0.0341796875-1.7578125t0.0830078125-1.77734375t0.13671875-1.71875t0.205078125-1.5625q-0.341796875,0.0390625-0.6689453125,0.087890625t-0.6689453125,0.048828125q-0.078125,0-0.2099609375-0.009765625t-0.2490234375-0.048828125t-0.2001953125-0.107421875t-0.0830078125-0.1953125z M173.689453125,23.498046875q0-0.1953125,0.0439453125-0.517578125t0.1025390625-0.6396484375t0.13671875-0.5908203125t0.185546875-0.3515625q0.078125-0.078125,0.2685546875-0.15625t0.400390625-0.1123046875t0.390625,0.029296875t0.2197265625,0.2587890625q-0.13671875,0.17578125-0.2490234375,0.6005859375t-0.1708984375,0.9423828125q-0.048828125,0.439453125-0.048828125,0.908203125l0,0.166015625q0.009765625,0.546875,0.09765625,1.005859375t0.2685546875,0.7568359375t0.5029296875,0.2978515625q0.68359375,0,1.25-0.6298828125t1.005859375-1.5380859375t0.771484375-1.9287109375t0.56640625-1.7822265625q0.05859375-0.224609375,0.2783203125-0.302734375t0.4736328125-0.0537109375t0.4541015625,0.1220703125t0.2392578125,0.234375q-0.1953125,1.640625-0.3076171875,3.28125t-0.1123046875,3.30078125q0,0.322265625,0.029296875,0.5908203125t-0.029296875,0.458984375t-0.2587890625,0.302734375t-0.6396484375,0.1123046875q-0.09765625,0-0.2490234375-0.01953125t-0.3125-0.0634765625t-0.2734375-0.1318359375t-0.1123046875-0.205078125q0-0.72265625,0.0537109375-1.484375t0.1513671875-1.474609375q-0.263671875,0.380859375-0.5810546875,0.7568359375t-0.6982421875,0.6787109375t-0.8203125,0.4833984375t-0.947265625,0.1806640625q-0.72265625,0-1.1376953125-0.341796875t-0.625-0.8544921875t-0.263671875-1.1181640625t-0.0537109375-1.171875z M182.87568359375,24.240234375q0-0.76171875,0.1611328125-1.3818359375t0.5126953125-1.0498046875t0.9228515625-0.6689453125t1.3916015625-0.2392578125q0.458984375,0,0.9375,0.1220703125t0.8203125,0.4541015625q0-0.1953125,0.0390625-0.8056640625t0.09765625-1.4208984375t0.1220703125-1.69921875t0.1123046875-1.650390625t0.087890625-1.279296875t0.05859375-0.5859375q0.09765625-0.283203125,0.361328125-0.3369140625t0.498046875-0.0537109375q0.615234375,0,0.7568359375,0.1953125t0.1416015625,0.78125q0,2.138671875-0.1904296875,4.2578125t-0.1904296875,4.2578125q0,1.376953125,0.0537109375,2.7685546875t0.3857421875,2.7392578125l0.107421875,0.09765625l0.05859375,0.17578125l-0.146484375,0.224609375q-0.37109375,0.234375-0.859375,0.234375l-0.0390625,0q-0.498046875,0-0.91796875-0.234375q-0.15625-0.09765625-0.2587890625-0.5810546875t-0.1611328125-1.064453125t-0.087890625-1.1181640625t-0.048828125-0.76171875q-0.341796875,0.78125-0.9326171875,1.3427734375t-1.4892578125,0.5615234375q-0.703125,0-1.15234375-0.302734375t-0.6982421875-0.771484375t-0.3515625-1.0498046875t-0.1025390625-1.1572265625z M184.05732421875,24.298828125q0,0.224609375,0.0537109375,0.6640625t0.1708984375,0.87890625t0.3271484375,0.78125t0.5517578125,0.341796875q0.458984375-0.224609375,0.830078125-0.7470703125t0.6396484375-1.15234375t0.419921875-1.259765625t0.1513671875-1.0888671875q0-0.576171875-0.419921875-0.95703125t-1.005859375-0.380859375q-0.17578125,0-0.3564453125,0.068359375t-0.3369140625,0.15625q-0.361328125,0.341796875-0.5615234375,0.6201171875t-0.302734375,0.576171875t-0.1318359375,0.6591796875t-0.029296875,0.83984375z M192.1205078125,24.123046875q0-0.8984375,0.2099609375-1.7626953125t0.3564453125-1.7236328125q0.0390625-0.224609375,0.3076171875-0.2783203125t0.4541015625-0.0537109375q0.322265625,0,0.517578125,0.09765625q0.078125,0.0390625,0.146484375,0.087890625t0.068359375,0.126953125q0,0.83984375-0.2001953125,1.640625t-0.2001953125,1.69921875q0,0.302734375,0.0439453125,0.5712890625t0.0830078125,0.5322265625l0.05859375,0.283203125q0,0.078125,0.009765625,0.13671875t0.029296875,0.13671875q0,0.17578125-0.2490234375,0.2392578125t-0.4345703125,0.0634765625q-0.283203125,0-0.5224609375-0.1123046875t-0.3759765625-0.3857421875l-0.13671875-0.283203125q-0.1171875-0.224609375-0.1171875-0.5029296875t-0.048828125-0.5126953125z M192.7455078125,18.244140625l0-0.185546875q0-0.458984375,0.2294921875-0.8203125t0.6884765625-0.361328125q0.05859375,0,0.1123046875,0.009765625t0.1123046875,0.009765625q0.1171875,0.01953125,0.3076171875,0.0927734375t0.1904296875,0.2294921875l0,0.01953125q-0.0390625,0.078125-0.048828125,0.1611328125t-0.048828125,0.1416015625l0.01953125-0.01953125q-0.1171875,0.302734375-0.1904296875,0.48828125t-0.1611328125,0.2978515625t-0.2197265625,0.1611328125t-0.3759765625,0.048828125q-0.0390625,0-0.13671875-0.009765625t-0.2099609375-0.0390625t-0.1904296875-0.078125t-0.078125-0.146484375z M196.18955078125,24.54296875q0-0.556640625,0.1416015625-1.1474609375t0.44921875-1.064453125t0.7763671875-0.771484375t1.1328125-0.2978515625q0.498046875,0,1.0498046875,0.1708984375t1.0107421875,0.48828125t0.7470703125,0.7763671875t0.2880859375,1.025390625q0,0.68359375-0.2490234375,1.298828125t-0.6982421875,1.0986328125t-1.0498046875,0.76171875t-1.3037109375,0.2783203125q-0.576171875,0-1.005859375-0.2099609375t-0.7177734375-0.5615234375t-0.4296875-0.830078125t-0.1416015625-1.015625z M197.62509765625,24.5234375q0,0.17578125,0.0537109375,0.517578125t0.1611328125,0.6689453125t0.2783203125,0.56640625t0.4150390625,0.2197265625q0.517578125-0.05859375,0.8544921875-0.3369140625t0.546875-0.6787109375t0.29296875-0.869140625t0.0830078125-0.888671875q0-0.537109375-0.2099609375-0.8984375t-0.6884765625-0.5859375q0,0.01953125,0.01953125,0.01953125t0.01953125-0.01953125l-0.244140625-0.05859375q-0.09765625-0.0390625-0.2392578125-0.087890625t-0.2783203125-0.21484375q-0.380859375,0.13671875-0.5908203125,0.3515625t-0.3173828125,0.5224609375t-0.1318359375,0.7373046875t-0.0244140625,1.03515625z"/></svg>
